<?xml version="1.0" encoding="utf-8"?>
<!-- Generator: Adobe Illustrator 22.1.0, SVG Export Plug-In . SVG Version: 6.00 Build 0)  -->
<svg version="1.1" id="Layer_1" xmlns="http://www.w3.org/2000/svg" xmlns:xlink="http://www.w3.org/1999/xlink" x="0px" y="0px"
	 viewBox="0 0 560 560" style="enable-background:new 0 0 560 560;" xml:space="preserve">
<style type="text/css">
	.st0{fill:url(#SVGID_1_);}
	.st1{fill:#999999;}
	.st2{fill:#4E9FC4;}
	.st3{fill:#CECCCD;stroke:#FFFFFF;stroke-width:0.1;stroke-miterlimit:10;}
	.st5{fill:none;stroke:#000000;stroke-width:0.1;stroke-miterlimit:10;}
	.st6{fill:url(#SVGID_2_);}
	.st7{fill:url(#SVGID_3_);}
	.st8{fill:none;}
	.st9{fill:url(#SVGID_4_);}
	.st10{fill:url(#SVGID_5_);}
</style>
<g>
	<linearGradient id="SVGID_1_" gradientUnits="userSpaceOnUse" x1="264.6384" y1="116.5754" x2="267.1298" y2="346.0282">
		<stop  offset="0" style="stop-color:#FFFFFF"/>
		<stop  offset="0.1081" style="stop-color:#D9E8F1;stop-opacity:0.9844"/>
		<stop  offset="0.2445" style="stop-color:#AFCFE3;stop-opacity:0.9647"/>
		<stop  offset="0.3516" style="stop-color:#95C0D9;stop-opacity:0.9492"/>
		<stop  offset="0.4154" style="stop-color:#8BBAD6;stop-opacity:0.94"/>
		<stop  offset="0.4597" style="stop-color:#8BBAD6;stop-opacity:0.9343"/>
		<stop  offset="0.7286" style="stop-color:#8BBAD6;stop-opacity:0.9"/>
		<stop  offset="0.7541" style="stop-color:#8BBAD6;stop-opacity:0.9"/>
		<stop  offset="0.9086" style="stop-color:#8BBAD6;stop-opacity:0.9"/>
		<stop  offset="0.9215" style="stop-color:#8BBAD6;stop-opacity:0.9141"/>
		<stop  offset="1" style="stop-color:#8BBAD6"/>
	</linearGradient>
	<path class="st0" d="M266,362.5c-3.8,0-7.5-1-10.9-2.8l-89.2-49.4c-7.1-3.9-11.6-11.5-11.6-19.6v-97.2c0-8.2,4.4-15.7,11.6-19.6
		l89.2-49.4c3.3-1.8,7.1-2.8,10.9-2.8s7.5,1,10.9,2.8l89.2,49.4c7.1,4,11.6,11.5,11.6,19.6v97.2c0,8.2-4.4,15.7-11.6,19.6
		l-89.2,49.4C273.5,361.5,269.8,362.5,266,362.5z"/>
	<path class="st1" d="M266,121.7c3.7,0,7.4,0.9,10.8,2.8l89.2,49.4c7.1,3.9,11.5,11.4,11.5,19.5l0,97.2c0,8.1-4.4,15.6-11.5,19.5
		l-89.2,49.4c-3.4,1.9-7.1,2.8-10.8,2.8c-3.7,0-7.4-0.9-10.8-2.8L166,310.1c-7.1-3.9-11.5-11.4-11.5-19.5l0-97.2
		c0-8.1,4.4-15.6,11.5-19.5l89.2-49.4C258.6,122.6,262.3,121.7,266,121.7 M266,121.4L266,121.4c-3.8,0-7.6,1-10.9,2.8l-89.2,49.4
		c-7.2,4-11.6,11.5-11.6,19.8l0,97.2c0,8.2,4.5,15.8,11.6,19.8l89.2,49.4c3.3,1.8,7.1,2.8,10.9,2.8s7.6-1,10.9-2.8l89.2-49.4
		c7.2-4,11.6-11.5,11.6-19.8l0-97.2c0-8.2-4.5-15.8-11.6-19.8l-89.2-49.4C273.6,122.4,269.8,121.4,266,121.4L266,121.4z"/>
</g>
<rect x="112" y="155.9" class="st2" width="12" height="170.1"/>
<rect x="333.5" y="30.1" transform="matrix(0.4914 -0.8709 0.8709 0.4914 72.9837 353.9085)" class="st2" width="12" height="168.8"/>
<rect x="408" y="155.9" class="st2" width="12" height="170.1"/>
<rect x="254.6" y="362.5" transform="matrix(0.8657 -0.5006 0.5006 0.8657 -138.8618 219.428)" class="st2" width="169.8" height="12"/>
<polygon class="st2" points="155.4,185.7 118,164.6 124.4,155.9 161.8,177.1 "/>
<polygon class="st2" points="263,416.2 118,335.8 124,326 269,406.4 "/>
<circle class="st3" cx="118" cy="155.9" r="17"/>
<g>
	<circle class="st3" cx="266" cy="73" r="17"/>
</g>
<circle class="st3" cx="414" cy="326" r="17"/>
<circle class="st3" cx="266" cy="411" r="17"/>
<circle class="st3" cx="118" cy="326" r="17"/>
<circle class="st3" cx="414" cy="155.9" r="17"/>
<linearGradient id="SVGID_2_" gradientUnits="userSpaceOnUse" x1="292.5072" y1="121.3016" x2="294.9106" y2="342.6542">
	<stop  offset="0" style="stop-color:#FFFFFF"/>
	<stop  offset="8.182319e-02" style="stop-color:#E5E7ED;stop-opacity:0.9883"/>
	<stop  offset="0.2299" style="stop-color:#BBC0D1;stop-opacity:0.967"/>
	<stop  offset="0.3461" style="stop-color:#A1A8BF;stop-opacity:0.9504"/>
	<stop  offset="0.4154" style="stop-color:#979FB9;stop-opacity:0.9404"/>
	<stop  offset="0.4255" style="stop-color:#939CB7;stop-opacity:0.9393"/>
	<stop  offset="0.4735" style="stop-color:#8890AF;stop-opacity:0.9337"/>
	<stop  offset="0.541" style="stop-color:#818AAA;stop-opacity:0.9258"/>
	<stop  offset="0.7286" style="stop-color:#7F88A9;stop-opacity:0.9039"/>
	<stop  offset="0.7541" style="stop-color:#7F88A9;stop-opacity:0.9033"/>
	<stop  offset="0.9086" style="stop-color:#7F88A9;stop-opacity:0.9"/>
	<stop  offset="0.9215" style="stop-color:#7F88A9;stop-opacity:0.9141"/>
	<stop  offset="1" style="stop-color:#7F88A9"/>
</linearGradient>
<polygon class="st6" points="308.3,141.9 308.7,341.9 279.5,358.7 279.5,126.2 "/>
<linearGradient id="SVGID_3_" gradientUnits="userSpaceOnUse" x1="241.1727" y1="124.1599" x2="243.5243" y2="340.7507">
	<stop  offset="0" style="stop-color:#FFFFFF"/>
	<stop  offset="8.182319e-02" style="stop-color:#E5E7ED;stop-opacity:0.9883"/>
	<stop  offset="0.2299" style="stop-color:#BBC0D1;stop-opacity:0.967"/>
	<stop  offset="0.3461" style="stop-color:#A1A8BF;stop-opacity:0.9504"/>
	<stop  offset="0.4154" style="stop-color:#979FB9;stop-opacity:0.9404"/>
	<stop  offset="0.4255" style="stop-color:#939CB7;stop-opacity:0.9393"/>
	<stop  offset="0.4735" style="stop-color:#8890AF;stop-opacity:0.9337"/>
	<stop  offset="0.541" style="stop-color:#818AAA;stop-opacity:0.9258"/>
	<stop  offset="0.7286" style="stop-color:#7F88A9;stop-opacity:0.9039"/>
	<stop  offset="0.7541" style="stop-color:#7F88A9;stop-opacity:0.9033"/>
	<stop  offset="0.9086" style="stop-color:#7F88A9;stop-opacity:0.9"/>
	<stop  offset="0.9215" style="stop-color:#7F88A9;stop-opacity:0.9141"/>
	<stop  offset="1" style="stop-color:#7F88A9"/>
</linearGradient>
<polyline class="st7" points="249,356.2 249,128.8 234.1,136.2 235.8,348.8 249,355.7 "/>
<line class="st8" x1="234.1" y1="136.2" x2="235.8" y2="348.8"/>
<linearGradient id="SVGID_4_" gradientUnits="userSpaceOnUse" x1="325.5393" y1="137.6183" x2="327.6067" y2="328.0208">
	<stop  offset="0" style="stop-color:#FFFFFF"/>
	<stop  offset="7.419278e-02" style="stop-color:#D6E9F1;stop-opacity:0.9893"/>
	<stop  offset="0.191" style="stop-color:#9CC9DE;stop-opacity:0.9724"/>
	<stop  offset="0.291" style="stop-color:#72B2D0;stop-opacity:0.958"/>
	<stop  offset="0.369" style="stop-color:#58A4C7;stop-opacity:0.9467"/>
	<stop  offset="0.4154" style="stop-color:#4E9FC4;stop-opacity:0.94"/>
	<stop  offset="0.4597" style="stop-color:#4E9FC4;stop-opacity:0.9343"/>
	<stop  offset="0.7286" style="stop-color:#4E9FC4;stop-opacity:0.9"/>
	<stop  offset="0.7541" style="stop-color:#4E9FC4;stop-opacity:0.9"/>
	<stop  offset="0.9086" style="stop-color:#4E9FC4;stop-opacity:0.9"/>
	<stop  offset="0.9215" style="stop-color:#4E9FC4;stop-opacity:0.9141"/>
	<stop  offset="1" style="stop-color:#4E9FC4"/>
</linearGradient>
<polyline class="st9" points="308.7,341.9 344.9,321 344.9,163 308.3,141.9 "/>
<linearGradient id="SVGID_5_" gradientUnits="userSpaceOnUse" x1="185.6167" y1="145.9269" x2="187.532" y2="322.3229">
	<stop  offset="0" style="stop-color:#FFFFFF"/>
	<stop  offset="7.419278e-02" style="stop-color:#D6E9F1;stop-opacity:0.9893"/>
	<stop  offset="0.191" style="stop-color:#9CC9DE;stop-opacity:0.9724"/>
	<stop  offset="0.291" style="stop-color:#72B2D0;stop-opacity:0.958"/>
	<stop  offset="0.369" style="stop-color:#58A4C7;stop-opacity:0.9467"/>
	<stop  offset="0.4154" style="stop-color:#4E9FC4;stop-opacity:0.94"/>
	<stop  offset="0.4597" style="stop-color:#4E9FC4;stop-opacity:0.9343"/>
	<stop  offset="0.7286" style="stop-color:#4E9FC4;stop-opacity:0.9"/>
	<stop  offset="0.7541" style="stop-color:#4E9FC4;stop-opacity:0.9"/>
	<stop  offset="0.9086" style="stop-color:#4E9FC4;stop-opacity:0.9"/>
	<stop  offset="0.9215" style="stop-color:#4E9FC4;stop-opacity:0.9141"/>
	<stop  offset="1" style="stop-color:#4E9FC4"/>
</linearGradient>
<polyline class="st10" points="161.8,177.1 210,150.5 210,149.5 210.4,334.7 163,308 163,178 "/>
<path class="st3" d="M297,224h-60c-4.8,0-8.7-3.9-8.7-8.7v0c0-4.8,3.9-8.7,8.7-8.7h60c4.8,0,8.7,3.9,8.7,8.7v0
	C305.7,220.1,301.8,224,297,224z"/>
<path class="st8" d="M114.9,44.4c-3.5-3.8-8.1-5.7-13.9-5.7c-5.8,0-10.4,1.9-13.9,5.7s-5.2,8.8-5.2,15.1v26.2l5.8-0.2l-5.8,0.2v0.9
	c0,6.3,1.7,11.3,5.2,15.1s8.1,5.7,13.9,5.7c5.8,0,10.4-1.9,13.9-5.7s5.2-8.8,5.2-15.1V68.2l-3.2-0.1l3.2,0.1v-8.8
	C120.2,53.2,118.4,48.2,114.9,44.4z"/>
<path class="st3" d="M268,287.9c-6.8,0-12.9-1.5-18.1-4.5c-5.2-3-9.2-7.3-12.1-12.7c-2.8-5.4-4.3-11.7-4.3-18.8
	c0-1.1,0.9-2.1,1.9-2.1c0,0,13.3-0.4,13.3-0.4c0.5,0,1,0.2,1.4,0.6c0.4,0.4,0.6,0.9,0.6,1.4v0.9c0,5.8,1.5,10.3,4.7,13.8
	c3.1,3.4,7.2,5.1,12.5,5.1s9.3-1.7,12.5-5.1c3.2-3.5,4.7-8,4.7-13.8v-18.3c0-0.5,0.2-1.1,0.6-1.4c0.4-0.4,0.9-0.6,1.4-0.6
	c0,0,13.3,0.4,13.3,0.4c1.1,0,1.9,0.9,1.9,2v17.5c0,7.1-1.4,13.4-4.3,18.8c-2.9,5.4-6.9,9.7-12.1,12.7
	C280.9,286.4,274.8,287.9,268,287.9z"/>
</svg>
