<svg xmlns="http://www.w3.org/2000/svg" width="170" height="84.999" viewBox="0 0 170 84.999"><path fill="#FFF" d="M0 0h170v85H0z"/><g fill="#E2231A"><path fill-rule="evenodd" clip-rule="evenodd" d="M94.575 38.075c0 2.98-1.847 7.145-5.538 7.145-1.894 0-4.26-1.516-4.26-4.78 0-2.175 1.325-7.098 5.49-7.098 2.605 0 4.308 1.894 4.308 4.733m6.624.19c0 6.86-5.3 12.162-12.21 12.162-6.104 0-10.837-4.545-10.837-10.367 0-2.484.808-4.805 2.188-6.727h-6.784c-2.73 0-4.333 1.885-4.614 5.98l-1.498 10.704h-6.36l1.5-10.704c.846-7.865 5.18-11.16 10.125-11.16 1.518 0 17.72-.017 17.843-.017 6.152.002 10.646 3.977 10.646 10.13M148.516 50.333c-7.344.338-7.17.215-7.344.215-10.044 0-14.98-5.19-14.98-13.12 0-3.084.906-5.935 2.47-8.293h-8.442c-3.434 0-5.444 2.365-5.797 7.512l-1.907 13.372-7.986-.005 1.905-13.367c1.064-9.88 6.506-14.02 12.72-14.02 2.114 0 21.65.013 21.65.013 8.362.03 12.892 6.47 11.003 15.025h-17.57c-.414 4.38 2.055 6.968 7.74 6.968.17 0 0 .12 7.342-.217l-.804 5.917zm-13.967-17.27c1.182-3.372 2.955-4.91 5.56-4.91 2.722 0 4.318 2.012 3.844 4.91h-9.405z"/><path d="M33.367 32.9c-4.424 0-8.298 2.946-9.058 9.984l-.32 2.555h-5.64l-.64 4.582h5.623l-1.758 12.533h5.607l2.814-19.67c.252-3.668 1.686-5.35 4.128-5.35h5.586l-.335 2.577c-1.167 7.01 1.89 9.917 6.297 9.917.834 0 5.676-.008 9.807-.005l2.374-17.12H52.23L50.523 45.44h-2.827c-2.435 0-3.403-1.678-2.654-5.33l.967-7.207-12.643-.003"/></g><path fill="#B82025" d="M0 0h170v85H0z"/><g fill="#FFF"><path fill-rule="evenodd" clip-rule="evenodd" d="M94.575 38.075c0 2.98-1.847 7.145-5.538 7.145-1.894 0-4.26-1.516-4.26-4.78 0-2.175 1.325-7.098 5.49-7.098 2.605 0 4.308 1.894 4.308 4.733m6.624.19c0 6.86-5.3 12.162-12.21 12.162-6.104 0-10.837-4.545-10.837-10.367 0-2.484.808-4.805 2.188-6.727h-6.784c-2.73 0-4.333 1.885-4.614 5.98l-1.498 10.704h-6.36l1.5-10.704c.846-7.865 5.18-11.16 10.125-11.16 1.518 0 17.72-.017 17.843-.017 6.152.002 10.646 3.977 10.646 10.13M148.516 50.333c-7.344.338-7.17.215-7.344.215-10.044 0-14.98-5.19-14.98-13.12 0-3.084.906-5.935 2.47-8.293h-8.442c-3.434 0-5.444 2.365-5.797 7.512l-1.907 13.372-7.986-.005 1.905-13.367c1.064-9.88 6.506-14.02 12.72-14.02 2.114 0 21.65.013 21.65.013 8.362.03 12.892 6.47 11.003 15.025h-17.57c-.414 4.38 2.055 6.968 7.74 6.968.17 0 0 .12 7.342-.217l-.804 5.917zm-13.967-17.27c1.182-3.372 2.955-4.91 5.56-4.91 2.722 0 4.318 2.012 3.844 4.91h-9.405z"/><path d="M33.367 32.9c-4.424 0-8.298 2.946-9.058 9.984l-.32 2.555h-5.64l-.64 4.582h5.623l-1.758 12.533h5.607l2.814-19.67c.252-3.668 1.686-5.35 4.128-5.35h5.586l-.335 2.577c-1.167 7.01 1.89 9.917 6.297 9.917.834 0 5.676-.008 9.807-.005l2.374-17.12H52.23L50.523 45.44h-2.827c-2.435 0-3.403-1.678-2.654-5.33l.967-7.207-12.643-.003"/></g></svg>