<svg xmlns="http://www.w3.org/2000/svg" viewBox="0 0 140 55" enable-background="new 0 0 140 55"><path fill="#f00" d="M0 0h140v55H0z"/><g fill="#fff"><path d="M63.1 30.7h7l-3.7-6-6.8 10.8h-3.1l8.3-13c.4-.5 1-.8 1.6-.8.7 0 1.2.3 1.6.8l8.3 13h-3.1l-1.5-2.4h-7.1l-1.5-2.4zm32.1 2.5V21.9h-2.6v12.3c0 .3.1.7.4.9.3.3.6.4 1 .4h12l1.5-2.4-12.3.1zm-43.4-2.1c2.5 0 4.6-2.1 4.6-4.6 0-2.6-2.1-4.6-4.6-4.6H40.3v13.7h2.6V24.3h8.7c1.2 0 2.2 1 2.2 2.2s-1 2.2-2.2 2.2h-7.4l7.8 6.8h3.8l-5.3-4.4h1.3zm-27.7 4.5c-3.8 0-6.8-3.1-6.8-6.8 0-3.8 3.1-6.8 6.8-6.8H32c3.8 0 6.8 3.1 6.8 6.8 0 3.8-3.1 6.8-6.8 6.8h-7.9zm7.8-2.4c2.4 0 4.4-2 4.4-4.4s-2-4.4-4.4-4.4h-7.6c-2.4 0-4.4 2-4.4 4.4s2 4.4 4.4 4.4h7.6zm49.8 2.4c-3.8 0-6.8-3.1-6.8-6.8 0-3.8 3.1-6.8 6.8-6.8h9.4l-1.5 2.4h-7.7c-2.4 0-4.4 2-4.4 4.4s2 4.4 4.4 4.4h9.5l-1.5 2.4h-8.2zm32.2-2.4c-2 0-3.7-1.4-4.3-3.2h11.2l1.5-2.4h-12.8c.5-1.9 2.2-3.2 4.3-3.2h7.7L123 22h-9.4c-3.8 0-6.8 3.1-6.8 6.8 0 3.8 3.1 6.8 6.8 6.8h8.1l1.5-2.4h-9.3zM124.5 23.4c0-.7.5-1.2 1.2-1.2s1.2.5 1.2 1.2-.5 1.2-1.2 1.2c-.6 0-1.2-.6-1.2-1.2zm1.2 1.5c.8 0 1.5-.7 1.5-1.5s-.7-1.5-1.5-1.5-1.5.7-1.5 1.5.7 1.5 1.5 1.5zm-.1-2.4h.5c.3.1.3.4.3.5v.1c0 .1-.1.2-.2.3h-.1l.4.7h-.4l-.4-.7h-.2v.7h-.3v-1.7h.4v.1zm.1.7c.1 0 .2 0 .3-.1V23c0-.1 0-.2-.1-.2h-.4v.5l.2-.1z"/></g></svg>