<?xml version="1.0" encoding="UTF-8" standalone="no"?>
<svg
   xmlns:dc="http://purl.org/dc/elements/1.1/"
   xmlns:cc="http://creativecommons.org/ns#"
   xmlns:rdf="http://www.w3.org/1999/02/22-rdf-syntax-ns#"
   xmlns:svg="http://www.w3.org/2000/svg"
   xmlns="http://www.w3.org/2000/svg"
   xmlns:xlink="http://www.w3.org/1999/xlink"
   xmlns:sodipodi="http://sodipodi.sourceforge.net/DTD/sodipodi-0.dtd"
   xmlns:inkscape="http://www.inkscape.org/namespaces/inkscape"
   viewBox="0 0 48 48"
   id="svg2"
   version="1.1"
   inkscape:version="0.91 r13725"
   sodipodi:docname="svg - Copy (3).svg">
  <metadata
     id="metadata31">
    <rdf:RDF>
      <cc:Work
         rdf:about="">
        <dc:format>image/svg+xml</dc:format>
        <dc:type
           rdf:resource="http://purl.org/dc/dcmitype/StillImage" />
      </cc:Work>
    </rdf:RDF>
  </metadata>

 <g
     transform="matrix(1.25 0 0 1.25 30.831-5.618)"
     color="#000"
     id="g17">
    <g
       fill="#faeded"
       id="g19">
      <path
         d="m.938 21.948l-5.79 3.874-.002 5.878c-.0001 3.233.014 5.878.033 5.878.019 0 2.633-1.738 5.809-3.862l5.774-3.862v-5.896c0-3.243-.008-5.893-.017-5.891-.009 0-2.622 1.748-5.807 3.879"
         opacity=".987"
         id="path21"
         style="fill:#88aacc;fill-opacity:1" />
      <path
         d="m-17.725 23.8v5.982l5.797 3.851c3.189 2.118 5.813 3.851 5.832 3.851.019 0 .035-2.689.035-5.976v-5.975l-5.794-3.858c-3.186-2.122-5.811-3.858-5.832-3.858-.021 0-.039 2.692-.039 5.982"
         opacity=".987"
         id="path23"
         style="fill:#88aacc;fill-opacity:1" />
      <path
         d="m-11.165 12.985c-3.107 2.077-5.676 3.803-5.709 3.835-.067.065 11.371 7.782 11.545 7.789.127 0 11.373-7.52 11.35-7.595-.011-.035-10.532-7.153-11.499-7.78-.021-.015-2.581 1.674-5.688 3.751"
         opacity=".987"
         id="path25"
         style="fill:#88aacc;fill-opacity:1" />
      <text
         xml:space="preserve"
         style="font-style:normal;font-variant:normal;font-weight:normal;font-stretch:semi-condensed;font-size:10.5px;line-height:50%;font-family:'Lucida Sans Typewriter';-inkscape-font-specification:'Lucida Sans Typewriter, Semi-Condensed';text-align:start;letter-spacing:0px;word-spacing:0px;writing-mode:lr-tb;text-anchor:start;opacity:1;fill:#f8f8f8;fill-opacity:1;stroke:none;stroke-width:1px;stroke-linecap:butt;stroke-linejoin:miter;stroke-opacity:1"
         x="-8.6246691"
         y="21.279682"
         id="text6573"
         sodipodi:linespacing="50%"
         transform="matrix(1.009324,0,0,0.99076214,0.16271186,-0.16271186)">J</text>
      <text
         xml:space="preserve"
         style="font-style:normal;font-variant:normal;font-weight:normal;font-stretch:semi-condensed;font-size:10px;line-height:50%;font-family:'Lucida Sans Typewriter';-inkscape-font-specification:'Lucida Sans Typewriter, Semi-Condensed';text-align:start;letter-spacing:0px;word-spacing:0px;writing-mode:lr-tb;text-anchor:start;opacity:1;fill:#f8f8f8;fill-opacity:1;stroke:none;stroke-width:1px;stroke-linecap:butt;stroke-linejoin:miter;stroke-opacity:1"
         x="-4.6246691"
         y="26.279682"
         id="text24"
         sodipodi:linespacing="50%"
         transform="matrix(1.009324,0,0,0.99076214,3.1728814,5.6949153)">P</text>
      <text
         xml:space="preserve"
         style="font-style:normal;font-variant:normal;font-weight:normal;font-stretch:semi-condensed;font-size:10px;line-height:50%;font-family:'Lucida Sans Typewriter';-inkscape-font-specification:'Lucida Sans Typewriter, Semi-Condensed';text-align:start;letter-spacing:0px;word-spacing:0px;writing-mode:lr-tb;text-anchor:start;opacity:1;fill:#f8f8f8;fill-opacity:1;stroke:none;stroke-width:1px;stroke-linecap:butt;stroke-linejoin:miter;stroke-opacity:1"
         x="-8.6246691"
         y="29.279682"
         id="text26"
         sodipodi:linespacing="50%"
         transform="matrix(1.009324,0,0,0.99076214,-5.8576271,2.0338983)">A</text>
    </g>
    <path
       d="m-6.646 38.957l-12.42-8.264v-1.842-11.475-.614c1.736-1.136.336-.218 1.133-.756l11.1-7.414c1.353-.901.012 0 1.37-.897 12.12 8.05 9.148 6.07 12.656 8.406.954.698.177.144.944.708v.519.047 11.475 1.842c-3.512 2.337-.514.342-.85.567l-11.57 7.697-.614.378c-.427.275 1.849-1.195-.567.36-1.121-.711-.001 0-1.181-.738m.425-1.558v-11.712l-.094-.142-.331-.189-10.909-7.272v11.759zm1.511 0l11.334-7.556v-11.523l-11.334 7.556zm-.567-12.987l11.05-7.367-11.239-7.509-11.1 7.367 10.767 7.178"
       id="path27"
       fill="url(#2)"
       opacity=".987"
       style="fill:#f8f8f8;fill-opacity:1" />
  </g>
</svg>
